<svg xmlns="http://www.w3.org/2000/svg" version="1.1" xmlns:xlink="http://www.w3.org/1999/xlink" width="512" height="512" x="0" y="0" viewBox="0 0 512 512" style="enable-background:new 0 0 512 512" xml:space="preserve"><g><path d="M512 256c0 54.32-14.116 107.04-40.82 152.46-26.111 44.409-62.876 79.749-106.32 102.2a12 12 0 1 1-11.018-21.32C435.34 447.223 488 355.632 488 256S435.34 64.777 353.842 22.661a12 12 0 1 1 11.018-21.32c43.444 22.45 80.209 57.79 106.32 102.2C497.884 148.96 512 201.68 512 256ZM402.707 364.694c19.836-32.141 30.32-69.727 30.32-108.694s-10.484-76.553-30.32-108.694c-19.475-31.558-46.668-55.959-78.641-70.567a12 12 0 0 0-9.974 21.83c57.671 26.348 94.935 88.144 94.935 157.431s-37.264 131.083-94.935 157.431a12 12 0 1 0 9.974 21.83c31.973-14.608 59.166-39.009 78.641-70.567ZM354.054 256c0-48.215-29.751-90.675-72.35-103.256a12 12 0 0 0-6.8 23.018c32.47 9.589 55.148 42.585 55.148 80.238s-22.678 70.649-55.148 80.238a12 12 0 1 0 6.8 23.018c42.596-12.581 72.35-55.041 72.35-103.256ZM226.55 48.787v414.426a12 12 0 0 1-20.8 8.155L90.664 347.149H12a12 12 0 0 1-12-12V176.85a12 12 0 0 1 12-12h78.664L205.748 40.632a12 12 0 0 1 20.8 8.155Zm-24 30.609-97.842 105.609a12 12 0 0 1-8.8 3.845H24v134.3h71.905a12 12 0 0 1 8.8 3.845L202.55 432.6Z" fill="#000000" opacity="1" data-original="#000000"></path></g></svg>